<?xml version="1.0" encoding="UTF-8"?>
<svg id="Layer_1" data-name="Layer 1" xmlns="http://www.w3.org/2000/svg" viewBox="0 0 81.62 105.65">
  <defs>
    <style>
      .cls-1 {
        fill: none;
        stroke: #f9f9f9;
        stroke-miterlimit: 10;
        stroke-width: 2px;
      }

      .cls-2 {
        fill: #f9f9f9;
      }

      .cls-2, .cls-3 {
        stroke-width: 0px;
      }

      .cls-3 {
        fill: #af2024;
      }
    </style>
  </defs>
  <g>
    <path class="cls-3" d="m40.81,105.65l-22.42-15.34C6.87,82.44,0,69.42,0,55.47V0h81.62v55.47c0,13.95-6.87,26.98-18.39,34.85l-22.42,15.34Z"/>
    <path class="cls-1" d="m4.84,4.84v50.63c0,12.35,6.09,23.88,16.28,30.85l19.69,13.47,19.69-13.47c10.19-6.97,16.28-18.5,16.28-30.85V4.84H4.84Z"/>
  </g>
  <g>
    <g>
      <path class="cls-2" d="m54.01,28.48l1.16,1.16,1.16,1.16-26.44,28.18c-1.53,1.63-3.31,2.99-5.25,4.02l-6,3.18,3.18-6c1.03-1.94,2.39-3.72,4.02-5.25l28.18-26.44Z"/>
      <path class="cls-2" d="m52.06,24.65l3.31,4.53c.07.1.16.19.26.26l4.53,3.31c.59.43.66,1.29.14,1.81l-.23.23-.23.23c-.52.52-1.38.45-1.81-.14l-3.31-4.53c-.07-.1-.16-.19-.26-.26l-4.53-3.31c-.59-.43-.66-1.29-.14-1.81l.23-.23.23-.23c.52-.52,1.38-.45,1.81.14Z"/>
      <rect class="cls-2" x="56.25" y="22.93" width="3.14" height="8.1" transform="translate(79.61 86.95) rotate(-135)"/>
      <circle class="cls-2" cx="61.33" cy="23.47" r="2.35"/>
    </g>
    <g>
      <path class="cls-2" d="m25.3,30.79l1.16-1.16,1.16-1.16,28.18,26.44c1.63,1.53,2.99,3.31,4.02,5.25l3.18,6-6-3.18c-1.94-1.03-3.73-2.39-5.25-4.02l-26.44-28.18Z"/>
      <path class="cls-2" d="m21.47,32.74l4.53-3.31c.1-.07.19-.16.26-.26l3.31-4.53c.43-.59,1.29-.66,1.81-.14l.23.23.23.23c.52.52.45,1.38-.14,1.81l-4.53,3.31c-.1.07-.19.16-.26.26l-3.31,4.53c-.43.59-1.29.66-1.81.14l-.23-.23-.23-.23c-.52-.52-.45-1.38.14-1.81Z"/>
      <rect class="cls-2" x="22.24" y="22.93" width="3.14" height="8.1" transform="translate(59.72 29.23) rotate(135)"/>
      <path class="cls-2" d="m18.63,25.14c-.92-.92-.92-2.41,0-3.33s2.41-.92,3.33,0c.92.92.92,2.41,0,3.33-.92.92-2.41.92-3.33,0Z"/>
    </g>
  </g>
</svg>