<?xml version="1.0" encoding="UTF-8"?>
<svg id="Layer_1" data-name="Layer 1" xmlns="http://www.w3.org/2000/svg" viewBox="0 0 553 167.77">
  <defs>
    <style>
      .cls-1 {
        fill: #af2024;
        stroke-width: 0px;
      }
    </style>
  </defs>
  <path class="cls-1" d="m535.92,167.77c-5-8.41-13.14-11.51-22.1-12.99-8.56-1.41-17.07-1.45-25.69.36-8.32,1.75-16.77,3.08-25.23,3.86-11.82,1.09-22.73-2.11-32.47-8.9-3.06-2.13-5.49-4.94-6.66-8.69-.7-2.23-.83-4.37.41-6.31,1.88-2.93,3.64-6.05,6.06-8.5,4.28-4.33,8.32-9.01,13.76-12.06.7-.39,1.15-1.21,1.77-1.87-1.29-1.91-3.07-2.43-4.91-2.58-5.68-.45-11.3-.22-16.93.99-10.88,2.34-21.79,4.54-32.75,6.48-2.82.5-5.88.03-8.78-.38-2.99-.42-4.44-2.42-4.61-5.48-.14-2.48.3-4.86,1.82-6.83,2.13-2.75,4.45-5.36,6.71-8.01.61-.71,1.28-1.37,2.14-2.27-5.57-.54-10.75-1.04-15.93-1.55-4.23-.42-8.46-1-12.7-1.24-6.75-.38-13.52-.6-20.28-.76-12.45-.31-24.89-.7-37.34-.72-8.95-.01-17.9.67-26.85.77-8.51.1-17.02-.14-25.54-.25-12.88-.17-25.75-.88-38.63-.1-5.66.34-11.35.16-17.03.26-12.34.22-24.69.53-37.03.67-11.79.13-23.59.06-35.39.15-1.73.01-3.46.44-5.19.63-7.27.78-14.53,1.59-21.81,2.27-2.16.2-4.36-.12-6.53.05-7.83.61-15.64,1.46-23.47,1.96-4.68.3-9.39.13-14.09.12-3.39,0-6.7.19-10.04,1.1-2.91.8-6.03.91-9.07,1.18-4.02.36-5.71-2.89-4.99-5.85.41-1.69.97-3.36,1.65-4.95.98-2.32,1.46-4.73.44-7.01-1.46-3.27-1.74-6.73-2.43-10.15-.7-3.52-1.46-7.04-2.45-10.49-1.11-3.87-2.51-7.66-3.77-11.5-1.48-4.54-4.71-7.49-8.74-9.75-3.31-1.86-6.62-3.74-9.8-5.8-.75-.49-1.36-1.76-1.4-2.7-.24-5.28,1.24-9.63,6.56-12.04,5.26-2.38,10.28-5.34,15.61-7.55,7.18-2.97,14.67-4.76,22.54-4.92,5.11-.1,10.2-.73,15.31-1.05,7.63-.48,15.26-.94,22.9-1.32,18.98-.94,37.99-1.5,56.95-2.8,26.65-1.83,53.29-.21,79.93-.3,8.41-.03,16.81-.37,25.22-.59,2.95-.08,5.9-.38,8.84-.35,32.56.39,65.13.57,97.68,1.37,17.79.44,35.56,1.83,53.33,3.06,10.01.69,20.04,1.58,29.98,2.97,9.96,1.39,19.52,4.64,29.15,7.48,9.21,2.72,17.74,6.74,25.51,12.37.79.57,1.57,1.19,2.27,1.87,3.9,3.72,4.19,8.37.72,12.57-1.32,1.6-2.83,3.04-4.29,4.51-3.15,3.19-6.33,6.35-9.48,9.53-.67.68-1.28,1.42-2.29,2.54,3.64.78,6.87.74,10.07.85,2.51.08,5.05-.3,7.53-.07,2.8.26,5.63.73,8.3,1.58,3.35,1.07,4.8,4.43,3.31,7.66-1.08,2.34-2.53,4.62-4.22,6.56-5.46,6.23-11.95,11.22-19.49,14.68-3.54,1.63-6.11,4.39-8.17,7.34-3.23,4.63-.82,11.96,4.38,14.92,4.51,2.56,9.39,4.06,14.49,4.97,9.02,1.61,18.03,3.3,27.05,4.95,5.14.94,9.79,3.06,14.04,6.03,6.89,4.82,13.66,9.8,19.27,17.1-1.03-.48-1.57-.63-1.98-.94-13.02-9.61-27.72-14.17-43.78-14.2-8.95-.02-17.9.51-26.85.87-4.42.18-8.73-.43-12.94-1.64-3.33-.95-6.14-2.84-8.33-5.55-1.92-2.37-3.75-4.82-5.72-7.37-3.86,3.34-8.54,5.65-11.72,9.84-2.68,3.52-2.51,8.24.72,11.26,2.34,2.19,5.07,3.76,8.18,4.66,7.06,2.04,14.17,3.38,21.6,3.24,7.42-.14,14.85.18,22.27.5,11.22.49,21.71,3.59,31.4,9.28,3.44,2.02,6.41,4.59,8.54,7.99.9,1.43,1.47,3.06,2.18,4.61-.22.12-.43.24-.65.36Z"/>
</svg>